<?xml version="1.0" standalone="no"?>
<!DOCTYPE svg PUBLIC "-//W3C//DTD SVG 1.1//EN" "http://www.w3.org/Graphics/SVG/1.1/DTD/svg11.dtd" >
<svg xmlns="http://www.w3.org/2000/svg" xmlns:xlink="http://www.w3.org/1999/xlink" version="1.1">
<metadata></metadata>
<defs>
<font id="kumbh_sansregular" horiz-adv-x="1110" >
<font-face units-per-em="2048" ascent="1638" descent="-410" />
<missing-glyph horiz-adv-x="500" />
<glyph horiz-adv-x="0" />
<glyph horiz-adv-x="682" />
<glyph unicode=" "  horiz-adv-x="500" />
<glyph unicode="&#x09;" horiz-adv-x="500" />
<glyph unicode="&#xa0;" horiz-adv-x="500" />
<glyph unicode="!" horiz-adv-x="462" d="M129 81q0 41 29.5 70t72.5 29t72.5 -29t29.5 -70q0 -42 -29.5 -71.5t-72.5 -29.5t-72.5 29.5t-29.5 71.5zM162 1500h138l-33 -1099h-72z" />
<glyph unicode="&#x22;" horiz-adv-x="784" d="M165 1520h131l-17 -435h-97zM488 1520h131l-17 -435h-97z" />
<glyph unicode="#" horiz-adv-x="1344" d="M75 417l19 116h235l65 371h-237l19 116h239l84 480h137l-85 -480h342l85 480h136l-85 -480h240l-19 -116h-241l-66 -371h245l-19 -116h-246l-74 -417h-136l73 417h-342l-73 -417h-137l74 417h-233zM465 533h342l65 371h-342z" />
<glyph unicode="$" horiz-adv-x="1070" d="M85 216l76 124q60 -47 118 -78.5t117 -46.5t119 -15q89 0 156 30t104.5 83.5t37.5 123.5q0 77 -42.5 127t-109.5 85.5t-141 66.5q-66 29 -130 60t-116 72.5t-83 100t-31 141.5q0 140 90.5 232.5t240.5 112.5v185h109v-181q78 -3 156 -24.5t151 -60.5l-63 -130 q-61 37 -130.5 56.5t-134.5 19.5q-113 0 -185 -58t-72 -150q0 -70 40.5 -117t106.5 -81t140 -67q66 -29 130.5 -61.5t118 -76.5t85.5 -104.5t32 -146.5q0 -101 -47 -180t-131 -129t-197 -64v-185h-109v181q-109 5 -213 44.5t-193 110.5z" />
<glyph unicode="%" horiz-adv-x="1677" d="M85 1196q0 146 91.5 235t240.5 89q150 0 240.5 -89t90.5 -235q0 -145 -91 -234t-240 -89t-240.5 89t-91.5 234zM207 1196q0 -100 58 -161t152 -61t151.5 61t57.5 161q0 101 -57 162t-152 61q-94 0 -152 -61t-58 -162zM285 0l967 1500h144l-967 -1500h-144zM929 303 q0 146 91 235t240 89q150 0 241 -89t91 -235q0 -145 -91.5 -234t-240.5 -89t-240 89t-91 234zM1051 303q0 -100 57.5 -161t151.5 -61t152 61t58 161q0 101 -57.5 162t-152.5 61q-94 0 -151.5 -61t-57.5 -162z" />
<glyph unicode="&#x26;" horiz-adv-x="1506" d="M125 404q0 103 41.5 178t108.5 130.5t143 101.5q-71 107 -108.5 204t-37.5 181q0 96 45 170.5t124 117.5t179 43t176 -41.5t119 -115.5t43 -170q0 -105 -48.5 -180.5t-124 -132.5t-158.5 -108q78 -97 186.5 -200.5t245.5 -212.5q57 75 105.5 171.5t85.5 211.5l140 -55 q-42 -125 -95 -230t-116 -189q59 -43 122 -88t130 -89l-91 -131q-70 47 -137 95t-129 95q-98 -93 -212.5 -141.5t-242.5 -48.5q-142 0 -254 56t-176 154.5t-64 223.5zM295 407q0 -83 43 -148t118 -102t170 -37q89 0 171.5 34t156.5 100q-140 115 -254 228.5t-200 220.5 q-57 -38 -103.5 -81.5t-74 -95.5t-27.5 -119zM442 1179q0 -64 27.5 -137t79.5 -153q69 40 127.5 82t93.5 94t35 121q0 84 -52 139t-132 55q-79 0 -129 -56t-50 -145z" />
<glyph unicode="'" horiz-adv-x="441" d="M155 1520h131l-17 -435h-97z" />
<glyph unicode="(" horiz-adv-x="607" d="M75 625q0 253 75 488t217 427h165q-151 -197 -231 -431.5t-80 -482.5q0 -247 80 -482t231 -433h-165q-142 191 -217 426t-75 488z" />
<glyph unicode=")" horiz-adv-x="608" d="M75 -289q152 198 232 433t80 482q0 248 -80 482.5t-232 431.5h166q142 -192 217 -427t75 -488t-75 -488t-217 -426h-166z" />
<glyph unicode="*" horiz-adv-x="1039" d="M75 1157l45 139l357 -150l-29 394h144l-30 -394l358 150l44 -139l-377 -92l252 -302l-117 -87l-202 337l-203 -337l-118 87l251 301z" />
<glyph unicode="+" horiz-adv-x="1144" d="M155 430v132h344v347h146v-347h344v-132h-344v-347h-146v347h-344z" />
<glyph unicode="," horiz-adv-x="470" d="M115 -240l80 420h150l-109 -420h-121z" />
<glyph unicode="-" d="M155 439v129h800v-129h-800z" />
<glyph unicode="." horiz-adv-x="463" d="M132 79q0 45 27.5 73t71.5 28t72.5 -28t28.5 -73q0 -44 -28.5 -71.5t-72.5 -27.5t-71.5 27.5t-27.5 71.5z" />
<glyph unicode="/" horiz-adv-x="825" d="M15 -20l638 1540h157l-637 -1540h-158z" />
<glyph unicode="0" horiz-adv-x="1186" d="M85 751q0 248 61 422t175 265.5t272 91.5q159 0 272.5 -91.5t174.5 -265.5t61 -422q0 -249 -60.5 -423.5t-174.5 -266t-273 -91.5q-158 0 -272 91.5t-175 266t-61 423.5zM265 751q0 -295 87 -460t241 -165q155 0 241.5 165t86.5 460t-86.5 459t-241.5 164 q-154 0 -241 -164t-87 -459z" />
<glyph unicode="1" horiz-adv-x="770" d="M75 1367l366 133h144v-1500h-176v1326l-278 -101z" />
<glyph unicode="2" horiz-adv-x="1239" d="M155 1272q77 122 199 190t262 68q130 0 230 -57.5t157 -158.5t57 -233q0 -107 -40 -220.5t-119 -231t-195.5 -236.5t-268.5 -238h657v-155h-901v111q185 158 315.5 289t212.5 243t120.5 211t38.5 192q0 97 -37 171.5t-103 116t-153 41.5q-99 0 -188.5 -56.5 t-146.5 -155.5z" />
<glyph unicode="3" horiz-adv-x="1119" d="M85 140l74 130q83 -72 171.5 -108.5t179.5 -36.5q95 0 167 37.5t113 104t41 153.5q0 140 -108 218.5t-300 78.5h-52v128h52q104 0 185.5 37t128.5 101.5t47 146.5q0 71 -35.5 126.5t-97.5 87t-142 31.5q-78 0 -155.5 -32.5t-149.5 -94.5l-84 122q83 77 187 118.5 t216 41.5q124 0 220.5 -48t152.5 -131.5t56 -190.5q0 -127 -78.5 -227t-202.5 -146q159 -36 251 -137t92 -250q0 -124 -64 -221.5t-175 -153t-254 -55.5q-122 0 -233.5 43.5t-202.5 126.5z" />
<glyph unicode="4" horiz-adv-x="1264" d="M75 358v139l756 1003h175v-987h183v-155h-183v-358h-176v358h-755zM275 513h555v737z" />
<glyph unicode="5" horiz-adv-x="1124" d="M85 162l97 139q48 -82 135 -128.5t193 -46.5q104 0 183 43.5t123 121t44 179.5t-44 179.5t-123 120.5t-182 43q-69 0 -129.5 -20.5t-109.5 -59.5l-90 57l66 710h724v-156h-562l-42 -427q85 29 182 29q144 0 254 -61.5t172.5 -169.5t62.5 -250q0 -146 -66 -257.5 t-183 -174.5t-270 -63q-133 0 -246 50t-189 142z" />
<glyph unicode="6" horiz-adv-x="1145" d="M85 522q0 142 43.5 281t124 267.5t194.5 238t255 191.5l82 -115q-127 -77 -231 -180t-179 -222t-115 -244q62 74 152 116t199 42q131 0 232.5 -58t159.5 -159.5t58 -232.5q0 -138 -63.5 -245.5t-174 -169.5t-252.5 -62q-147 0 -256 68t-169 192t-60 292zM271 447 q0 -91 40.5 -164t109.5 -115.5t156 -42.5t155.5 42.5t108 116.5t39.5 166q0 91 -38.5 160t-106 108.5t-155.5 39.5q-89 0 -159 -40t-110 -110t-40 -161z" />
<glyph unicode="7" horiz-adv-x="1067" d="M75 1344v156h917v-122l-569 -1378h-190l554 1344h-712z" />
<glyph unicode="8" horiz-adv-x="1183" d="M105 397q0 144 76.5 247.5t209.5 149.5q-109 44 -171 135t-62 216q0 117 53.5 203.5t151 134t228.5 47.5t228.5 -47.5t151 -134t53.5 -203.5q0 -125 -62 -216t-171 -135q133 -45 210 -149t77 -248q0 -128 -60.5 -224.5t-170 -149.5t-256.5 -53q-146 0 -255.5 53 t-170 149.5t-60.5 224.5zM281 426q0 -90 39 -157.5t109 -105t162 -37.5q93 0 163 37.5t109 105.5t39 157q0 90 -39 158t-109 105.5t-163 37.5q-92 0 -162 -38t-109 -105.5t-39 -157.5zM331 1115q0 -115 72 -186.5t188 -71.5t188 71.5t72 186.5q0 116 -72 187.5t-188 71.5 t-188 -71.5t-72 -187.5z" />
<glyph unicode="9" horiz-adv-x="1145" d="M85 1053q0 138 63.5 246t174.5 169.5t253 61.5q148 0 256.5 -68t168 -192t59.5 -292q0 -142 -43.5 -281t-124 -267.5t-194.5 -238t-255 -191.5l-82 115q127 78 231.5 181t179.5 221.5t115 243.5q-61 -75 -151.5 -116.5t-200.5 -41.5q-131 0 -232.5 58t-159.5 159.5 t-58 232.5zM265 1050q0 -90 38.5 -159.5t106 -109t155.5 -39.5q90 0 159.5 40.5t109.5 111t40 160.5q0 91 -40 163.5t-109.5 115t-156.5 42.5q-86 0 -155 -42.5t-108.5 -116t-39.5 -166.5z" />
<glyph unicode=":" horiz-adv-x="462" d="M132 80q0 41 28.5 70.5t70.5 29.5t70.5 -29.5t28.5 -70.5q0 -42 -28.5 -71t-70.5 -29t-70.5 29t-28.5 71zM132 879q0 42 28.5 71.5t70.5 29.5t70.5 -29.5t28.5 -71.5t-28.5 -70.5t-70.5 -28.5t-70.5 28.5t-28.5 70.5z" />
<glyph unicode=";" horiz-adv-x="471" d="M115 -240l80 420h151l-109 -420h-122zM161 879q0 42 27.5 71.5t70.5 29.5q42 0 71 -29.5t29 -71.5t-29 -70.5t-71 -28.5q-43 0 -70.5 28.5t-27.5 70.5z" />
<glyph unicode="&#x3c;" horiz-adv-x="1166" d="M75 465v96l936 459v-143l-777 -364l777 -370v-143z" />
<glyph unicode="=" horiz-adv-x="1265" d="M155 177v132h955v-132h-955zM155 664v132h955v-132h-955z" />
<glyph unicode="&#x3e;" horiz-adv-x="1166" d="M155 0v143l776 370l-776 364v143l936 -459v-96z" />
<glyph unicode="?" horiz-adv-x="924" d="M105 1395q179 135 377 135q112 0 194 -42.5t127.5 -119.5t45.5 -182q0 -66 -20.5 -116t-54 -92t-72.5 -84q-49 -53 -97 -116.5t-80 -153.5t-32 -223h-145q0 155 33 257t82.5 170t96.5 121q49 55 84 107.5t35 128.5q0 91 -55.5 143.5t-153.5 52.5q-73 0 -145.5 -31 t-133.5 -89zM322 79q0 45 27.5 73t71.5 28t71.5 -28t27.5 -73q0 -44 -27.5 -71.5t-71.5 -27.5t-71.5 27.5t-27.5 71.5z" />
<glyph unicode="@" horiz-adv-x="1938" d="M75 498q0 197 71 363.5t199.5 290.5t301.5 192.5t376 68.5q186 0 340 -58t266 -165t173 -253t61 -322q0 -155 -45.5 -276.5t-125 -191t-180.5 -69.5q-84 0 -142 49.5t-80 137.5q-63 -90 -158.5 -138.5t-213.5 -48.5q-129 0 -227 56t-153.5 156t-55.5 231q0 142 64 255 t174.5 179t248.5 66q114 0 202.5 -45.5t142.5 -128.5l9 110h156q-8 -58 -15.5 -125.5t-14 -137t-12 -133.5t-8.5 -114.5t-3 -79.5q0 -59 31 -99t75 -40q48 0 85.5 48t59 131t21.5 187q0 201 -84 351.5t-235.5 234t-354.5 83.5q-167 0 -309 -57t-247.5 -159.5t-164 -241.5 t-58.5 -303q0 -191 79 -334.5t221 -223t331 -79.5q234 0 420 116l74 -134q-253 -132 -516 -132q-231 0 -406.5 99t-274 275.5t-98.5 408.5zM652 524q0 -133 80 -214.5t211 -81.5q89 0 162 37.5t121 103t61 148.5l5 58q0 89 -37.5 155.5t-104 103.5t-154.5 37 q-98 0 -176 -45.5t-123 -124t-45 -177.5z" />
<glyph unicode="A" horiz-adv-x="1512" d="M45 0l616 1500h191l615 -1500h-185l-163 405h-726l-163 -405h-185zM455 561h602l-301 749z" />
<glyph unicode="B" horiz-adv-x="1303" d="M155 0v1500h532q215 0 338 -99t123 -272q0 -123 -61 -214.5t-163 -132.5q137 -34 215.5 -130.5t78.5 -236.5q0 -124 -61.5 -217.5t-171.5 -145.5t-257 -52h-573zM331 156h359q104 0 182 35.5t122 99t44 146.5q0 81 -41.5 141t-117 92.5t-177.5 32.5h-371v-547zM331 838 h352q132 0 211.5 70t79.5 185q0 116 -81 183.5t-221 67.5h-341v-506z" />
<glyph unicode="C" horiz-adv-x="1528" d="M85 750q0 169 58 311.5t163 247.5t247.5 163t311.5 58q168 0 311 -58.5t246 -162.5l-123 -125q-80 89 -192 139.5t-245 50.5q-129 0 -238 -46.5t-189.5 -131t-125 -198.5t-44.5 -248q0 -135 44.5 -248.5t125 -198t189.5 -131t238 -46.5q133 0 245 50.5t192 139.5 l124 -124q-103 -104 -246 -163t-312 -59t-311.5 58t-247.5 163.5t-163 248t-58 310.5z" />
<glyph unicode="D" horiz-adv-x="1558" d="M155 0v1500h432q276 0 474.5 -90t305 -258t106.5 -402q0 -233 -106.5 -401.5t-305 -258.5t-474.5 -90h-432zM331 156h264q221 0 377 70t238.5 203t82.5 321t-82.5 321t-238.5 203t-377 70h-264v-1188z" />
<glyph unicode="E" horiz-adv-x="1229" d="M155 0v1500h919v-156h-743v-504h702v-156h-702v-528h753v-156h-929z" />
<glyph unicode="F" horiz-adv-x="1204" d="M155 0v1500h904v-156h-728v-504h687v-156h-687v-684h-176z" />
<glyph unicode="G" horiz-adv-x="1667" d="M85 747q0 168 58 311t162 249t245 164.5t307 58.5q157 0 298.5 -54t251.5 -155l-116 -114q-83 81 -195 124t-237 43q-130 0 -239 -45.5t-188.5 -129t-123 -197.5t-43.5 -251q0 -136 43 -250.5t121 -198.5t185 -130t235 -46q118 0 217.5 39.5t175 112t122 173t57.5 221.5 h-550v139h706l5 -65q0 -171 -53.5 -313t-151.5 -246t-232 -160.5t-295 -56.5q-165 0 -304.5 58.5t-243 163.5t-160.5 246.5t-57 308.5z" />
<glyph unicode="H" horiz-adv-x="1499" d="M155 0v1500h176v-682h837v682h176v-1500h-176v662h-837v-662h-176z" />
<glyph unicode="I" horiz-adv-x="486" d="M155 0v1500h176v-1500h-176z" />
<glyph unicode="J" horiz-adv-x="497" d="M-195 -205q181 0 271 88.5t90 263.5v1353h176v-1345q0 -179 -55.5 -293t-172 -168t-301.5 -54z" />
<glyph unicode="K" horiz-adv-x="1377" d="M155 0v1500h176v-904q32 47 62.5 88.5t53.5 70.5l592 745h210l-547 -687l660 -813h-229l-544 671l-257 -324v-347h-177z" />
<glyph unicode="L" horiz-adv-x="1150" d="M155 0v1500h176v-1344h744v-156h-920z" />
<glyph unicode="M" horiz-adv-x="1821" d="M155 0v1500h227l528 -1063l526 1063h230v-1500h-176v1253l-501 -1001h-159l-499 995v-1247h-176z" />
<glyph unicode="N" horiz-adv-x="1615" d="M155 0v1500h186l943 -1225v1225h176v-1500h-186l-943 1225v-1225h-176z" />
<glyph unicode="O" horiz-adv-x="1729" d="M85 750q0 169 58 311.5t163 247.5t247.5 163t311.5 58t311 -58t247 -163t163 -247.5t58 -311.5q0 -168 -58 -310.5t-163 -248t-247 -163.5t-311 -58t-311.5 58t-247.5 163.5t-163 248t-58 310.5zM265 750q0 -134 45 -248t126 -198.5t190.5 -131t238.5 -46.5t238.5 47 t190.5 131.5t125.5 198t44.5 247.5t-44.5 248t-125.5 198.5t-190.5 131t-238.5 46.5t-238.5 -46.5t-190.5 -131t-126 -198.5t-45 -248z" />
<glyph unicode="P" horiz-adv-x="1289" d="M155 0v1500h462q184 0 315.5 -57t201.5 -163t70 -254q0 -147 -70 -254t-201.5 -164.5t-315.5 -57.5h-286v-550h-176zM331 706h271q202 0 312 85t110 235t-110 234t-312 84h-271v-638z" />
<glyph unicode="Q" horiz-adv-x="1729" d="M85 750q0 169 58 311.5t163 247.5t247.5 163t311.5 58t311 -58t247 -163t163 -247.5t58 -311.5q0 -179 -65.5 -328.5t-183 -256t-274.5 -156.5q93 -26 173.5 -42.5t160.5 -26t170 -14.5l-36 -152q-146 25 -257 51t-210 61t-211 85h-46q-169 0 -311.5 58t-247.5 163 t-163 247.5t-58 310.5zM265 750q0 -134 45 -248t126 -198.5t190.5 -131t238.5 -46.5t238.5 47t190.5 131.5t125.5 198t44.5 247.5t-44.5 248t-125.5 198.5t-190.5 131t-238.5 46.5t-238.5 -46.5t-190.5 -131t-126 -198.5t-45 -248z" />
<glyph unicode="R" horiz-adv-x="1364" d="M155 0v1500h569q161 0 277 -54t179 -153.5t63 -237.5q0 -161 -85.5 -270t-239.5 -151l371 -634h-196l-358 610h-404v-610h-176zM331 766h382q163 0 256.5 77t93.5 212t-93 212t-257 77h-382v-578z" />
<glyph unicode="S" horiz-adv-x="1196" d="M85 146l85 135q65 -53 130 -88t132.5 -52t137.5 -17q102 0 178.5 34t119.5 94.5t43 139.5q0 86 -48.5 142.5t-125.5 96.5t-164 76q-73 31 -145 66t-130.5 81.5t-93.5 112.5t-35 159q0 119 60 210t166.5 142t245.5 51q94 0 189 -24.5t184 -71.5l-72 -144q-70 41 -146.5 63 t-150.5 22q-88 0 -154.5 -29.5t-104 -82t-37.5 -122.5q0 -78 45.5 -131t118 -91.5t153.5 -74.5q77 -34 152.5 -71.5t137 -88t98.5 -120.5t37 -169q0 -127 -64 -222.5t-179.5 -148.5t-270.5 -53q-136 0 -259 44t-233 132z" />
<glyph unicode="T" horiz-adv-x="1210" d="M35 1344v156h1140v-156h-482v-1344h-176v1344h-482z" />
<glyph unicode="U" horiz-adv-x="1569" d="M155 671v829h176v-815q0 -177 54 -302t155.5 -191t243.5 -66q143 0 244.5 66t155.5 191t54 302v815h176v-829q0 -218 -75.5 -375.5t-216.5 -241.5t-338 -84q-196 0 -337 84t-216.5 241.5t-75.5 375.5z" />
<glyph unicode="V" horiz-adv-x="1553" d="M65 1500h186l526 -1310l525 1310h186l-615 -1500h-193z" />
<glyph unicode="W" horiz-adv-x="2144" d="M55 1500h184l379 -1200l379 1200h152l378 -1197l377 1197h185l-486 -1500h-152l-378 1197l-378 -1197h-152z" />
<glyph unicode="X" horiz-adv-x="1498" d="M55 0l583 779l-538 721h220l437 -592l434 592h211l-540 -722l581 -778h-220l-478 649l-480 -649h-210z" />
<glyph unicode="Y" horiz-adv-x="1391" d="M25 1500h214l456 -712l458 712h213l-583 -861v-639h-176v641z" />
<glyph unicode="Z" horiz-adv-x="1291" d="M85 0v135l879 1209h-839v156h1065v-145l-871 -1199h887v-156h-1121z" />
<glyph unicode="[" horiz-adv-x="632" d="M155 -289v1829h402v-132h-256v-1563h256v-134h-402z" />
<glyph unicode="\" horiz-adv-x="825" d="M15 1520h158l637 -1540h-157z" />
<glyph unicode="]" horiz-adv-x="632" d="M75 -157h257v1565h-257v132h402v-1829h-402v132z" />
<glyph unicode="^" horiz-adv-x="1056" d="M75 700l404 800h98l404 -800h-133l-320 659l-320 -659h-133z" />
<glyph unicode="_" horiz-adv-x="1361" d="M155 0v133h1051v-133h-1051z" />
<glyph unicode="`" horiz-adv-x="494" d="M85 1500h156l158 -334h-120z" />
<glyph unicode="a" horiz-adv-x="1097" d="M105 307q0 99 52.5 174.5t143 118.5t205.5 43q75 0 153 -18.5t139 -50.5v42q0 80 -40 136.5t-107 87t-148 30.5q-70 0 -143 -25.5t-140 -78.5l-54 141q87 56 183 84.5t190 28.5q130 0 224.5 -52.5t146.5 -149t52 -228.5v-590h-141l-11 132q-55 -71 -140 -111.5 t-190 -40.5q-108 0 -193 42.5t-133.5 116.5t-48.5 168zM275 314q0 -52 30.5 -94t83.5 -66t120 -24q77 0 141 32t104 92.5t44 143.5v17q-55 43 -123.5 66.5t-139.5 23.5q-111 0 -185.5 -54t-74.5 -137z" />
<glyph unicode="b" horiz-adv-x="1284" d="M155 0v1500h164v-635q70 73 166 114t209 41q148 0 264 -68t183.5 -185.5t67.5 -266.5q0 -148 -67.5 -266t-183.5 -186t-264 -68q-118 0 -216.5 44.5t-168.5 121.5l-8 -146h-146zM319 473q7 -99 55 -177t127.5 -123t178.5 -45q103 0 184.5 48.5t129 132.5t47.5 190 q0 107 -47.5 191.5t-129 133.5t-184.5 49q-98 0 -177.5 -45t-128 -123t-55.5 -177v-55z" />
<glyph unicode="c" horiz-adv-x="1061" d="M75 500q0 149 68.5 266.5t187 185.5t267.5 68q114 0 214 -42t173 -121l-98 -103q-53 56 -126.5 86t-155.5 30q-105 0 -186.5 -47.5t-128 -130.5t-46.5 -191t46.5 -192t128 -131.5t186.5 -47.5q82 0 156 30.5t126 85.5l99 -102q-73 -79 -173 -121.5t-215 -42.5 q-149 0 -267.5 68t-187 186t-68.5 266z" />
<glyph unicode="d" horiz-adv-x="1286" d="M75 500q0 149 67.5 266.5t184.5 185.5t264 68q114 0 210.5 -41t165.5 -114v635h164v-1500h-146l-9 146q-69 -77 -168 -121.5t-217 -44.5q-147 0 -264 68t-184.5 186t-67.5 266zM243 501q0 -106 47.5 -190.5t129.5 -133.5t186 -49q100 0 182 46.5t130.5 127t48.5 182.5v34 q0 102 -48.5 182.5t-130.5 126.5t-182 46q-104 0 -186 -49t-129.5 -133t-47.5 -190z" />
<glyph unicode="e" horiz-adv-x="1165" d="M75 513q0 146 66 260.5t181 180.5t261 66q150 0 264.5 -72t178.5 -200t64 -296v-32h-837q18 -88 72 -153t135.5 -101t181.5 -36q172 0 314 113l76 -120q-186 -143 -410 -143q-156 0 -280 70t-195.5 190.5t-71.5 272.5zM247 560h688q-11 93 -57.5 162.5t-120 108.5 t-165.5 39q-93 0 -167.5 -39t-121 -108.5t-56.5 -162.5z" />
<glyph unicode="f" horiz-adv-x="824" d="M55 853v147h175v215q0 93 39.5 164t110 111t162.5 40q57 0 114.5 -15.5t112.5 -47.5l-63 -129q-34 22 -69 33.5t-70 11.5q-77 0 -125 -55.5t-48 -144.5v-183h309v-147h-309v-853h-164v853h-175z" />
<glyph unicode="g" horiz-adv-x="1257" d="M75 510q0 146 66 261t180.5 182t259.5 67q116 0 213 -43.5t165 -120.5l8 144h145v-974q0 -168 -66 -290.5t-188 -189t-290 -66.5q-238 0 -414 158l72 132q137 -142 335 -142q119 0 205.5 49.5t134 139.5t47.5 213v123q-68 -71 -162.5 -112t-205.5 -41q-144 0 -258.5 67 t-180.5 182.5t-66 260.5zM240 510q0 -104 46.5 -187t126.5 -130.5t181 -47.5q98 0 178 44.5t128 122t48 175.5v46q0 99 -48 176t-128 121.5t-178 44.5q-101 0 -181 -48t-126.5 -130.5t-46.5 -186.5z" />
<glyph unicode="h" horiz-adv-x="1226" d="M155 0v1500h164v-650q113 170 350 170q199 0 310.5 -118.5t111.5 -330.5v-571h-164v533q0 161 -79.5 250.5t-221.5 89.5q-143 0 -225 -91t-82 -249v-533h-164z" />
<glyph unicode="i" horiz-adv-x="483" d="M142 1417q0 41 28.5 70t70.5 29q43 0 72 -29t29 -70q0 -42 -29 -71.5t-72 -29.5q-42 0 -70.5 29.5t-28.5 71.5zM159 0v1000h164v-1000h-164z" />
<glyph unicode="j" horiz-adv-x="497" d="M-113 -376q16 -3 30.5 -4t28.5 -1q104 0 168 74t64 199v1108h165v-1114q0 -194 -89.5 -300t-250.5 -106q-27 0 -56 3.5t-60 9.5v131zM161 1416q0 42 28.5 71t70.5 29t71 -29t29 -71t-29 -71t-71 -29t-70.5 29t-28.5 71z" />
<glyph unicode="k" horiz-adv-x="1146" d="M155 0v1500h164v-1056l78 95l435 461h206l-408 -434l471 -566h-213l-372 446l-197 -210v-236h-164z" />
<glyph unicode="l" horiz-adv-x="484" d="M155 0v1500h174v-1500h-174z" />
<glyph unicode="m" horiz-adv-x="1873" d="M155 0v1000h134l7 -179q50 98 136.5 148.5t204.5 50.5q126 0 215.5 -56.5t133.5 -161.5q49 107 139.5 162.5t216.5 55.5q187 0 291.5 -118.5t104.5 -330.5v-571h-164v533q0 161 -70.5 250.5t-198.5 89.5q-129 0 -202.5 -90.5t-73.5 -249.5v-533h-164v533q0 161 -71 250.5 t-199 89.5q-129 0 -202.5 -90.5t-73.5 -249.5v-533h-164z" />
<glyph unicode="n" horiz-adv-x="1226" d="M155 0v1000h143l6 -162q55 88 152.5 135t219.5 47q191 0 303 -115t112 -310v-595h-164v577q0 135 -75.5 214t-205.5 79q-93 0 -167 -41.5t-117 -116.5t-43 -174v-538h-164z" />
<glyph unicode="o" horiz-adv-x="1195" d="M75 500q0 148 68.5 265.5t187.5 186t268 68.5t267 -68.5t186 -186t68 -265.5q0 -149 -68 -266.5t-186 -185.5t-267 -68t-268 68t-187.5 185.5t-68.5 266.5zM243 500q0 -106 46.5 -190t127 -133t181.5 -49t181 49t126.5 133t46.5 190t-46.5 190t-126.5 133t-181 49 t-181.5 -49t-127 -133t-46.5 -190z" />
<glyph unicode="p" horiz-adv-x="1285" d="M155 -500v1500h146l8 -146q70 77 169 121.5t217 44.5q147 0 263.5 -68t184 -185.5t67.5 -266.5q0 -148 -67.5 -266t-184 -186t-263.5 -68q-113 0 -209.5 41t-166.5 114v-635h-164zM319 466q8 -98 56 -174t127.5 -119t179.5 -43q105 0 186 47.5t126.5 131.5t45.5 192 q0 109 -46 192.5t-126.5 131.5t-184.5 48q-99 0 -178.5 -44t-128.5 -120.5t-57 -174.5v-68z" />
<glyph unicode="q" horiz-adv-x="1285" d="M75 500q0 149 67.5 266.5t184 185.5t263.5 68q118 0 217 -44.5t169 -121.5l8 146h146v-1500h-164v635q-70 -73 -166.5 -114t-209.5 -41q-147 0 -263.5 68t-184 186t-67.5 266zM245 500q0 -108 46 -191.5t127 -131t186 -47.5q100 0 179 42.5t127.5 118.5t55.5 174v69 q-7 99 -55 175t-126.5 118.5t-178.5 42.5q-106 0 -187 -47.5t-127.5 -130.5t-46.5 -192z" />
<glyph unicode="r" horiz-adv-x="796" d="M155 0v1000h144l7 -198q52 103 146.5 160.5t217.5 57.5q27 0 55 -3t56 -9l-20 -148q-55 13 -109 13q-98 0 -173.5 -48t-117.5 -132t-42 -193v-500h-164z" />
<glyph unicode="s" horiz-adv-x="870" d="M85 87l43 154q36 -34 82 -59t97 -38.5t103 -13.5q93 0 150 41t57 107q0 48 -29.5 79.5t-77.5 54.5t-103 44q-67 26 -133 59t-109.5 87t-43.5 142q0 84 42 146t117.5 96t173.5 34q148 0 291 -74l-49 -148q-32 21 -74 37.5t-86 25.5t-83 9q-73 0 -118 -33.5t-45 -89.5 q0 -32 18.5 -58.5t62.5 -52.5t122 -58q69 -28 136 -63.5t111.5 -91t44.5 -144.5q0 -88 -46.5 -155.5t-129 -105.5t-190.5 -38q-179 0 -334 107z" />
<glyph unicode="t" horiz-adv-x="800" d="M65 853v147h183v250h156v-250h299v-147h-299v-526q0 -90 48.5 -145t127.5 -55q64 0 128 38l27 -141q-99 -44 -193 -44q-90 0 -158 39.5t-106 111t-38 166.5v556h-175z" />
<glyph unicode="u" horiz-adv-x="1226" d="M135 430v570h164v-558q0 -142 80.5 -227t214.5 -85q140 0 226.5 92t86.5 240v538h164v-1000h-144l-6 162q-55 -88 -144.5 -135t-211.5 -47q-199 0 -314.5 120.5t-115.5 329.5z" />
<glyph unicode="v" horiz-adv-x="1150" d="M75 1000h177l324 -828l325 828h174l-421 -1000h-159z" />
<glyph unicode="w" horiz-adv-x="1581" d="M55 1000h174l239 -800l245 800h154l245 -800l240 800h174l-320 -1000h-190l-226 764l-226 -764h-190z" />
<glyph unicode="x" horiz-adv-x="1095" d="M15 0l428 517l-395 483h213l289 -353l284 353h207l-388 -479l427 -521h-214l-319 391l-325 -391h-207z" />
<glyph unicode="y" horiz-adv-x="1177" d="M55 1000h181l376 -803l332 803h178l-620 -1500h-179l210 508z" />
<glyph unicode="z" horiz-adv-x="1043" d="M75 0v91l619 761h-589v148h838v-79l-628 -773h653v-148h-893z" />
<glyph unicode="{" horiz-adv-x="620" d="M75 588v75q69 5 116.5 67.5t47.5 148.5v409q0 125 77.5 188.5t228.5 63.5v-133q-84 0 -122 -36.5t-38 -117.5v-378q0 -85 -41 -151.5t-112 -98.5q71 -32 112 -98.5t41 -151.5v-375q0 -81 38 -118.5t122 -37.5v-133q-151 0 -228.5 63.5t-77.5 188.5v409q0 86 -47.5 148.5 t-116.5 67.5z" />
<glyph unicode="|" horiz-adv-x="455" d="M155 -250v1790h145v-1790h-145z" />
<glyph unicode="}" horiz-adv-x="620" d="M75 -156q84 0 122 38t38 118v375q0 85 41.5 151.5t111.5 98.5q-70 32 -111.5 99t-41.5 151v378q0 80 -38 117t-122 37v133q152 0 229 -63.5t77 -188.5v-409q0 -86 47.5 -148.5t116.5 -67.5v-75q-69 -5 -116.5 -67.5t-47.5 -148.5v-409q0 -125 -77 -188.5t-229 -63.5v133z " />
<glyph unicode="~" horiz-adv-x="1352" d="M155 479v124q147 144 284 144q47 0 101.5 -17.5t143.5 -61.5q59 -29 119 -54t124 -25q133 0 270 149v-125q-73 -77 -138 -112.5t-134 -35.5q-64 0 -124 24.5t-119 53.5q-60 30 -121 55t-126 25q-136 0 -280 -144z" />
<glyph unicode="&#xa2;" horiz-adv-x="1061" d="M75 640q0 140 61 253t167.5 183t241.5 82v182h110v-183q99 -9 184 -50.5t146 -109.5l-98 -103q-51 56 -123 87t-154 31q-105 0 -188 -48.5t-131 -132.5t-48 -190t48 -191t130.5 -134t186.5 -49q84 0 156.5 32t122.5 87l99 -102q-61 -67 -146 -109t-184 -52v-183h-111v182 q-135 12 -241.5 82t-167.5 183t-61 253z" />
<glyph unicode="&#xa3;" horiz-adv-x="1209" d="M125 690v120h197q-41 99 -57.5 164.5t-16.5 125.5q0 122 54.5 217t150 149t217.5 54q123 0 231 -57t183 -161l-108 -84q-54 75 -127.5 115t-156.5 40t-144.5 -38t-95.5 -106.5t-34 -161.5q0 -49 13 -102t51 -155h411v-120h-372q10 -41 15 -79.5t5 -77.5 q0 -111 -40.5 -206t-123.5 -180h687v-147h-926v99q125 92 192 203.5t67 228.5q0 37 -7 76t-22 83h-243z" />
<glyph unicode="&#xa5;" horiz-adv-x="1214" d="M35 1500h193l378 -733l380 733h193l-479 -847h348v-80h-356v-172h356v-80h-356v-321h-169v321h-357v80h357v173h-357v79h350z" />
<glyph unicode="&#xa8;" horiz-adv-x="897" d="M139 1338q0 40 25 65t65 25t65 -25t25 -65t-25 -65t-65 -25t-65 25t-25 65zM579 1338q0 40 25 65t65 25t64.5 -25t24.5 -65t-24.5 -65t-64.5 -25t-65 25t-25 65z" />
<glyph unicode="&#xa9;" horiz-adv-x="1349" d="M75 495q0 173 77.5 308t213.5 212.5t309 77.5t308.5 -77.5t213 -212.5t77.5 -308t-77.5 -308.5t-213 -213t-308.5 -77.5t-309 77.5t-213.5 213t-77.5 308.5zM190 493q0 -140 62.5 -250.5t172.5 -173.5t250 -63t249.5 63.5t172 173.5t62.5 250q0 141 -63 251.5 t-172.5 174.5t-248.5 64t-249 -63.5t-173 -174.5t-63 -252zM365 495q0 94 42.5 166.5t116.5 114.5t168 42q141 0 244 -92l-72 -73q-30 32 -72 48.5t-93 16.5q-100 0 -162 -61.5t-62 -162.5q0 -100 62 -161.5t162 -61.5q51 0 94 17t73 49l70 -74q-101 -92 -244 -92 q-94 0 -168 42t-116.5 115.5t-42.5 166.5z" />
<glyph unicode="&#xab;" horiz-adv-x="1142" d="M75 497l323 385h161l-330 -386l330 -385h-161zM503 497l323 385h161l-330 -386l330 -385h-161z" />
<glyph unicode="&#xad;" d="M155 439v129h800v-129h-800z" />
<glyph unicode="&#xae;" horiz-adv-x="1349" d="M75 1022q0 173 77.5 308t213.5 212.5t309 77.5t308.5 -77.5t213 -212.5t77.5 -308t-77.5 -308.5t-213 -213t-308.5 -77.5t-309 77.5t-213.5 213t-77.5 308.5zM189 1020q0 -140 63 -250t173 -173t250 -63t249.5 63t172 173t62.5 250q0 141 -63 251.5t-172.5 174.5 t-248.5 64t-249 -64t-173.5 -174.5t-63.5 -251.5zM458 703v642h215q108 0 170.5 -52t62.5 -141q0 -63 -32 -108t-90 -66l149 -275h-126l-138 258h-101v-258h-110zM568 1061h89q71 0 105 23t34 70t-34 69t-105 22h-89v-184z" />
<glyph unicode="&#xb4;" horiz-adv-x="494" d="M95 1166l157 334h157l-195 -334h-119z" />
<glyph unicode="&#xb8;" horiz-adv-x="608" d="M125 -391l34 84q45 -19 92 -19q56 0 93 26.5t37 66.5q0 43 -42 71t-104 28h-10.5t-10.5 -1l55 142h80l-35 -84q74 -7 119 -49.5t45 -109.5q0 -78 -61 -128.5t-159 -50.5q-65 0 -133 24z" />
<glyph unicode="&#xbb;" horiz-adv-x="1142" d="M155 111l330 385l-330 386h161l323 -385l-323 -386h-161zM583 111l330 385l-330 386h161l323 -385l-323 -386h-161z" />
<glyph unicode="&#x2c6;" horiz-adv-x="881" d="M155 1166l212 334h146l213 -334h-123l-163 263l-162 -263h-123z" />
<glyph unicode="&#x2da;" horiz-adv-x="732" d="M155 1313q0 93 58 150t153 57t153 -57t58 -150t-58 -150t-153 -57t-153 57t-58 150zM238 1313q0 -59 35 -95t93 -36t93.5 36t35.5 95t-35.5 95t-93.5 36t-93 -36t-35 -95z" />
<glyph unicode="&#x2dc;" horiz-adv-x="977" d="M155 1252q18 205 188 205q59 0 98.5 -22t72.5 -47q29 -22 58 -38.5t66 -16.5q94 0 111 114h73q-8 -98 -57 -151.5t-131 -53.5q-52 0 -88.5 19t-75.5 50q-28 23 -57.5 40t-67.5 17q-99 0 -116 -116h-74z" />
<glyph unicode="&#x2000;" horiz-adv-x="810" />
<glyph unicode="&#x2001;" horiz-adv-x="1620" />
<glyph unicode="&#x2002;" horiz-adv-x="810" />
<glyph unicode="&#x2003;" horiz-adv-x="1620" />
<glyph unicode="&#x2004;" horiz-adv-x="540" />
<glyph unicode="&#x2005;" horiz-adv-x="405" />
<glyph unicode="&#x2006;" horiz-adv-x="270" />
<glyph unicode="&#x2007;" horiz-adv-x="270" />
<glyph unicode="&#x2008;" horiz-adv-x="202" />
<glyph unicode="&#x2009;" horiz-adv-x="324" />
<glyph unicode="&#x200a;" horiz-adv-x="90" />
<glyph unicode="&#x2010;" d="M155 439v129h800v-129h-800z" />
<glyph unicode="&#x2011;" d="M155 439v129h800v-129h-800z" />
<glyph unicode="&#x2012;" d="M155 439v129h800v-129h-800z" />
<glyph unicode="&#x2013;" horiz-adv-x="1330" d="M155 439v129h1020v-129h-1020z" />
<glyph unicode="&#x2014;" horiz-adv-x="2350" d="M155 439v129h2040v-129h-2040z" />
<glyph unicode="&#x2018;" horiz-adv-x="532" d="M155 1070l125 450h107l-101 -450h-131z" />
<glyph unicode="&#x2019;" horiz-adv-x="532" d="M155 1070l101 450h121l-125 -450h-97z" />
<glyph unicode="&#x201a;" horiz-adv-x="470" d="M115 -240l80 420h150l-109 -420h-121z" />
<glyph unicode="&#x201c;" horiz-adv-x="893" d="M155 1070l125 450h97l-101 -450h-121zM516 1070l125 450h97l-101 -450h-121z" />
<glyph unicode="&#x201d;" horiz-adv-x="892" d="M155 1070l101 450h121l-125 -450h-97zM516 1070l101 450h120l-125 -450h-96z" />
<glyph unicode="&#x201e;" horiz-adv-x="833" d="M115 -240l80 420h150l-109 -420h-121zM478 -240l80 420h150l-109 -420h-121z" />
<glyph unicode="&#x2026;" horiz-adv-x="1322" d="M145 66q0 38 24 62.5t62 24.5t62 -24.5t24 -62.5t-24 -62t-62 -24t-62 24t-24 62zM575 66q0 38 24 62.5t62 24.5t62 -24.5t24 -62.5t-24 -62t-62 -24t-62 24t-24 62zM1005 66q0 38 24 62.5t62 24.5t62 -24.5t24 -62.5t-24 -62t-62 -24t-62 24t-24 62z" />
<glyph unicode="&#x202f;" horiz-adv-x="324" />
<glyph unicode="&#x2039;" horiz-adv-x="729" d="M75 509l338 397h161l-343 -397l343 -397h-161z" />
<glyph unicode="&#x203a;" horiz-adv-x="729" d="M155 112l342 397l-342 397h160l339 -397l-339 -397h-160z" />
<glyph unicode="&#x205f;" horiz-adv-x="405" />
<glyph unicode="&#x20ac;" horiz-adv-x="1103" d="M75 566l10 86h140q-3 29 -4.5 50t-1.5 53q0 26 1 45.5t5 47.5h-150l10 86h154q37 180 141 314t262 208t356 74v-156q-145 0 -263 -54.5t-198 -153t-114 -232.5h464l-10 -86h-470q-4 -24 -5.5 -48.5t-1.5 -49.5t1.5 -49t5.5 -49h448l-10 -86h-422q34 -133 114 -232 t197.5 -153.5t263.5 -54.5v-156q-198 0 -356 74t-262 208.5t-141 313.5h-164z" />
<glyph unicode="&#x2122;" horiz-adv-x="1574" d="M35 1414v86h547v-86h-225v-634h-97v634h-225zM693 780v720h117l245 -495l246 495h118v-720h-97v573l-227 -452h-80l-226 450v-571h-96z" />
<glyph unicode="&#x25fc;" horiz-adv-x="1000" d="M0 0v1000h1000v-1000h-1000z" />
</font>
</defs>
</svg>
