<?xml version="1.0" standalone="no"?>
<!DOCTYPE svg PUBLIC "-//W3C//DTD SVG 1.1//EN" "http://www.w3.org/Graphics/SVG/1.1/DTD/svg11.dtd" >
<svg xmlns="http://www.w3.org/2000/svg" xmlns:xlink="http://www.w3.org/1999/xlink" version="1.1">
<metadata></metadata>
<defs>
<font id="kumbh_sansblack" horiz-adv-x="1000" >
<font-face units-per-em="2048" ascent="1638" descent="-410" />
<missing-glyph horiz-adv-x="440" />
<glyph horiz-adv-x="0" />
<glyph horiz-adv-x="682" />
<glyph unicode=" "  horiz-adv-x="440" />
<glyph unicode="&#x09;" horiz-adv-x="440" />
<glyph unicode="&#xa0;" horiz-adv-x="440" />
<glyph unicode="!" horiz-adv-x="498" d="M90 135q0 65 45.5 110t112.5 45q68 0 114 -45t46 -110t-46 -110t-114 -45q-67 0 -112.5 45t-45.5 110zM100 1500h299l-44 -1080h-211z" />
<glyph unicode="&#x22;" horiz-adv-x="808" d="M100 1520h260l-34 -435h-192zM448 1520h260l-34 -435h-192z" />
<glyph unicode="#" horiz-adv-x="1341" d="M20 332l37 240h181l42 242h-189l39 240h193l79 446h288l-79 -446h215l79 446h289l-79 -446h206l-38 -240h-210l-43 -242h219l-38 -240h-223l-59 -332h-289l59 332h-215l-59 -332h-288l58 332h-175zM526 572h215l43 242h-215z" />
<glyph unicode="$" horiz-adv-x="1106" d="M30 239l164 267q65 -51 121.5 -82.5t110 -46t108.5 -14.5t94 12.5t59.5 36.5t20.5 58q0 43 -30 72.5t-78.5 53t-104.5 46.5q-66 27 -133.5 59t-124 76.5t-91 110t-34.5 158.5q0 158 98 256.5t255 126.5l-9 191h230l-9 -185q83 -9 171.5 -35t178.5 -70l-136 -281 q-64 39 -140 62.5t-138 23.5q-66 0 -104.5 -26t-38.5 -70q0 -39 29.5 -68t79 -54t108.5 -51q64 -28 130.5 -61.5t123 -79.5t91 -110t34.5 -153q0 -101 -47.5 -182t-135 -135t-206.5 -74l9 -191h-230l9 184q-118 11 -229 56t-206 119z" />
<glyph unicode="%" horiz-adv-x="1592" d="M30 1196q0 146 94.5 235t249.5 89t250 -89t95 -235q0 -145 -95 -234t-250 -89t-249.5 89t-94.5 234zM169 1l967 1500h298l-967 -1500h-298zM280 1197q0 -55 25.5 -89.5t68.5 -34.5q42 0 68.5 34.5t26.5 89.5q0 56 -26.5 90t-68.5 34q-43 0 -68.5 -34t-25.5 -90zM874 303 q0 146 95 235t249 89q155 0 249.5 -89t94.5 -235q0 -145 -94.5 -234.5t-249.5 -89.5q-154 0 -249 89.5t-95 234.5zM1124 303q0 -55 25.5 -89t68.5 -34q42 0 68 34t26 89q0 56 -26 90.5t-68 34.5q-43 0 -68.5 -34.5t-25.5 -90.5z" />
<glyph unicode="&#x26;" horiz-adv-x="1447" d="M70 394q0 97 43 167t112 122.5t147 95.5q-62 100 -95 194.5t-33 178.5q0 112 53.5 197t148 133t215.5 48q117 0 207 -43.5t141.5 -120.5t51.5 -176q0 -110 -49 -185.5t-126 -129t-161 -97.5q55 -68 125.5 -139.5t156.5 -145.5q35 53 63 117t47 135l270 -76 q-27 -100 -67 -188t-92 -162q56 -43 97 -71t102 -66l-142 -212q-63 38 -123 77.5t-116 78.5q-97 -75 -210.5 -115.5t-238.5 -40.5q-149 0 -268.5 55t-189 151t-69.5 218zM404 470q0 -61 30 -109t82.5 -76t120.5 -28q44 0 88 12.5t86 34.5q-99 82 -182 163.5t-149 161.5 q-23 -21 -40.5 -45t-26.5 -52t-9 -62zM556 1144q0 -46 17.5 -102t51.5 -117q39 29 68 62t45.5 73.5t16.5 90.5q0 62 -25 100t-69 38q-45 0 -75 -40t-30 -105z" />
<glyph unicode="'" horiz-adv-x="460" d="M100 1520h260l-34 -435h-192z" />
<glyph unicode="(" horiz-adv-x="672" d="M20 625q0 260 71.5 497.5t204.5 417.5h356q-152 -198 -232 -431.5t-80 -481.5q0 -247 80 -481.5t232 -434.5h-356q-133 179 -204.5 416.5t-71.5 497.5z" />
<glyph unicode=")" horiz-adv-x="672" d="M20 -289q152 200 232 434.5t80 481.5q0 248 -80 481.5t-232 431.5h356q133 -180 204.5 -417.5t71.5 -497.5t-71.5 -497.5t-204.5 -416.5h-356z" />
<glyph unicode="*" horiz-adv-x="1056" d="M20 1074l83 256l330 -149l-40 360h270l-40 -360l330 149l83 -256l-354 -74l244 -267l-219 -159l-179 315l-179 -315l-219 159l244 267z" />
<glyph unicode="+" horiz-adv-x="1106" d="M100 337v290h293v284h320v-284h293v-290h-293v-285h-320v285h-293z" />
<glyph unicode="," horiz-adv-x="490" d="M60 -240l70 440h290l-120 -440h-240z" />
<glyph unicode="-" d="M100 360v280h800v-280h-800z" />
<glyph unicode="." horiz-adv-x="500" d="M90 140q0 72 44 116t116 44t116 -44t44 -116t-44 -116t-116 -44t-116 44t-44 116z" />
<glyph unicode="/" horiz-adv-x="1005" d="M10 -20l639 1540h346l-639 -1540h-346z" />
<glyph unicode="0" horiz-adv-x="1274" d="M60 751q0 248 71.5 422t201 265.5t304.5 91.5t304.5 -91.5t201 -265.5t71.5 -422q0 -249 -71.5 -423.5t-201 -266t-304.5 -91.5t-304.5 91.5t-201 266t-71.5 423.5zM465 750q0 -209 45 -322t127 -113q83 0 127.5 113t44.5 322t-44.5 322t-127.5 113q-82 0 -127 -113 t-45 -322z" />
<glyph unicode="1" horiz-adv-x="892" d="M20 1340l440 160h312v-1500h-396v1112l-233 -85z" />
<glyph unicode="2" horiz-adv-x="1213" d="M100 1304q95 108 231 167t278 59q137 0 253.5 -57t187 -164t70.5 -258q0 -96 -30.5 -189t-87.5 -181.5t-137 -173t-180 -162.5h438v-345h-993v227q172 159 285.5 273t179 197.5t93 150t27.5 129.5q0 65 -23 112t-64.5 72.5t-96.5 25.5q-65 0 -127 -36.5t-108 -101.5z" />
<glyph unicode="3" horiz-adv-x="1208" d="M90 124l147 293q78 -50 148 -76t131 -26q55 0 98 20t67.5 55.5t24.5 81.5q0 78 -70 121.5t-195 43.5h-71v271h71q68 0 121 19.5t83 54t30 79.5q0 36 -20 64t-55 44t-80 16q-49 0 -108.5 -22t-132.5 -68l-169 275q92 77 207.5 118.5t242.5 41.5q142 0 252 -50t173 -137.5 t63 -202.5q0 -118 -66 -212t-176 -147q146 -46 229 -142.5t83 -229.5q0 -126 -73.5 -225.5t-199.5 -156.5t-286 -57q-129 0 -249.5 40t-219.5 114z" />
<glyph unicode="4" horiz-adv-x="1319" d="M20 271v300l701 929h395v-884h183v-345h-183v-271h-396v271h-700zM360 616h360v478z" />
<glyph unicode="5" horiz-adv-x="1200" d="M60 151l201 323q32 -70 104 -114.5t153 -44.5q63 0 112 27.5t77 76.5t28 111q0 63 -28.5 112t-78.5 77t-114 28q-54 0 -101.5 -21.5t-85.5 -62.5l-189 107l67 730h832v-345h-471l-27 -243q56 12 116 12q138 0 248 -58.5t173.5 -160.5t63.5 -232q0 -142 -76.5 -256 t-208 -180.5t-298.5 -66.5q-136 0 -266.5 47.5t-230.5 133.5z" />
<glyph unicode="6" horiz-adv-x="1231" d="M60 577q0 145 44 277.5t130.5 249.5t213 216.5t291.5 179.5l181 -251q-110 -56 -202.5 -124t-163.5 -143.5t-118 -156.5q53 51 125.5 78t161.5 27q132 0 233 -57.5t158 -158.5t57 -233q0 -149 -71.5 -264.5t-196.5 -181t-286 -65.5q-170 0 -295 75t-193.5 211.5 t-68.5 320.5zM465 503q0 -53 20 -95.5t54 -67.5t75 -25q43 0 77 26t54.5 70t20.5 97t-19.5 94t-53 65t-76.5 24t-77.5 -24.5t-54.5 -67t-20 -96.5z" />
<glyph unicode="7" horiz-adv-x="1079" d="M20 1155v345h1039l-1 -254l-513 -1246h-429l476 1155h-572z" />
<glyph unicode="8" horiz-adv-x="1185" d="M50 398q0 143 83 246.5t227 149.5q-121 44 -189 134t-68 214q0 118 60.5 205t170.5 135t258 48t258 -48t170.5 -135t60.5 -205q0 -123 -68.5 -213.5t-188.5 -134.5q145 -46 228 -149t83 -246q0 -128 -68 -225t-190 -150.5t-285 -53.5t-285 53t-189.5 149.5t-67.5 225.5z M445 455q0 -53 18.5 -94t51.5 -63.5t77 -22.5t77.5 22.5t52 63.5t18.5 94q0 54 -18.5 95t-52 63.5t-77.5 22.5t-77 -22.5t-51.5 -63.5t-18.5 -95zM488 1106q0 -61 29 -99.5t75 -38.5q47 0 75.5 38.5t28.5 99.5q0 62 -28.5 100.5t-75.5 38.5q-46 0 -75 -38.5t-29 -100.5z" />
<glyph unicode="9" horiz-adv-x="1231" d="M60 1019q0 149 72 264.5t197.5 181t285.5 65.5q170 0 295 -75t193 -211.5t68 -320.5q0 -145 -44 -277.5t-130.5 -249.5t-213 -216.5t-291.5 -179.5l-180 251q111 56 203 124t163 144t117 156q-53 -51 -125.5 -78t-161.5 -27q-132 0 -233 57.5t-158 158.5t-57 233z M466 992q0 -52 19.5 -93.5t53 -65.5t75.5 -24q44 0 78 24.5t54 67.5t20 96t-19.5 95.5t-53 67.5t-75.5 25t-76.5 -25.5t-55 -69.5t-20.5 -98z" />
<glyph unicode=":" horiz-adv-x="500" d="M90 141q0 67 46 114t113 47q68 0 114.5 -47t46.5 -114t-46.5 -114t-114.5 -47q-67 0 -113 47t-46 114zM90 819q0 67 46 114t113 47q68 0 114.5 -47t46.5 -114t-46.5 -114t-114.5 -47q-67 0 -113 47t-46 114z" />
<glyph unicode=";" horiz-adv-x="490" d="M60 -240l70 440h290l-120 -440h-240zM100 819q0 67 46 114t113 47q68 0 114.5 -47t46.5 -114t-46.5 -113.5t-114.5 -46.5q-67 0 -113 46.5t-46 113.5z" />
<glyph unicode="&#x3c;" horiz-adv-x="1027" d="M20 431v157l907 432v-301l-515 -210l515 -209v-300z" />
<glyph unicode="=" horiz-adv-x="1155" d="M100 121v280h955v-280h-955zM100 608v280h955v-280h-955z" />
<glyph unicode="&#x3e;" horiz-adv-x="1027" d="M100 0v300l515 209l-515 210v301l907 -432v-157z" />
<glyph unicode="?" horiz-adv-x="943" d="M50 1390q194 140 430 140q136 0 235.5 -45t153.5 -129t54 -201q0 -75 -22 -131t-61.5 -103.5t-92.5 -97.5q-48 -47 -94 -99.5t-75.5 -125t-29.5 -178.5h-313q0 139 30 230t74 151t85 105q38 42 65.5 80.5t27.5 88.5q0 59 -39 95.5t-103 36.5q-58 0 -109.5 -31t-82.5 -84z M232 140q0 72 44 116t116 44t116 -44t44 -116t-44 -116t-116 -44t-116 44t-44 116z" />
<glyph unicode="@" horiz-adv-x="1879" d="M40 516q0 194 72 359t202 287t305.5 189.5t382.5 67.5q190 0 347 -57.5t271.5 -163.5t176.5 -251.5t62 -321.5q0 -169 -46 -295.5t-128.5 -197t-192.5 -70.5q-88 0 -155.5 45.5t-102.5 128.5q-64 -83 -153 -127.5t-192 -44.5q-124 0 -222 61t-154.5 167t-56.5 240 q0 144 64.5 260.5t174 184.5t245.5 68q98 0 179 -37.5t136 -108.5l7 85h184q-6 -44 -14 -107t-16 -133.5t-14.5 -139t-10.5 -123.5t-4 -87q0 -64 26.5 -108t69.5 -44q45 0 83 50t60.5 132.5t22.5 181.5q0 183 -80.5 320.5t-224 214.5t-333.5 77q-157 0 -291.5 -53 t-234.5 -148.5t-155.5 -223t-55.5 -277.5q0 -173 73.5 -305t204 -206t300.5 -74q202 0 398 105l71 -193q-242 -109 -484 -109q-235 0 -415 99.5t-281 275.5t-101 407zM709 526q0 -118 63.5 -190t166.5 -72q69 0 128 32.5t99.5 89.5t53.5 132l6 67q0 78 -29.5 137t-82 91.5 t-122.5 32.5q-80 0 -144 -42.5t-101.5 -114.5t-37.5 -163z" />
<glyph unicode="A" horiz-adv-x="1606" d="M10 0l586 1500h415l585 -1500h-415l-97 267h-562l-97 -267h-415zM648 612h311l-156 428z" />
<glyph unicode="B" horiz-adv-x="1340" d="M100 0v1500h571q259 0 400 -105t141 -297q0 -107 -48 -190.5t-130 -130.5q122 -40 189 -130t67 -221q0 -130 -63 -225.5t-179 -148t-274 -52.5h-674zM496 345h175q68 0 116 15.5t73 45t25 71.5t-22 70.5t-64.5 43t-103.5 14.5h-199v-260zM496 895h148q85 0 131.5 34.5 t46.5 98.5q0 59 -47 93t-131 34h-148v-260z" />
<glyph unicode="C" horiz-adv-x="1481" d="M60 750q0 168 59.5 310t167 247.5t253 164t316.5 58.5q169 0 312.5 -57.5t249.5 -159.5l-276 -278q-52 70 -127.5 110t-164.5 40q-82 0 -152 -33t-122.5 -92t-81.5 -138t-29 -171q0 -93 29 -172t81.5 -138.5t122.5 -92.5t152 -33q89 0 164 40t127 110l280 -279 q-106 -102 -250.5 -159t-314.5 -57q-171 0 -316.5 58.5t-253 164t-167 247.5t-59.5 310z" />
<glyph unicode="D" horiz-adv-x="1580" d="M100 0v1500h531q269 0 468.5 -93t310 -261.5t110.5 -395.5q0 -226 -110.5 -395t-310 -262t-468.5 -93h-531zM496 345h148q152 0 257 47t159.5 137.5t54.5 220.5q0 131 -54.5 221t-159.5 137t-257 47h-148v-810z" />
<glyph unicode="E" horiz-adv-x="1200" d="M100 0v1500h1000v-345h-604v-232h564v-345h-564v-233h614v-345h-1010z" />
<glyph unicode="F" horiz-adv-x="1150" d="M100 0v1500h960v-345h-564v-232h524v-345h-524v-578h-396z" />
<glyph unicode="G" horiz-adv-x="1632" d="M60 754q0 164 59 305t165 247t247.5 165t306.5 59q155 0 302 -54t264 -154l-255 -255q-54 56 -132 87t-168 31q-87 0 -157.5 -29.5t-121 -85.5t-78 -134t-27.5 -176q0 -100 29 -182t83 -140.5t128.5 -90.5t165.5 -32q68 0 124 18t99 53t73 86.5t46 117.5h-359v300h707 l11 -151q0 -171 -51.5 -312.5t-146.5 -243.5t-226.5 -157.5t-292.5 -55.5q-168 0 -312.5 59.5t-253 166t-169 249.5t-60.5 309z" />
<glyph unicode="H" horiz-adv-x="1515" d="M100 0v1500h396v-590h523v590h396v-1500h-396v565h-523v-565h-396z" />
<glyph unicode="I" horiz-adv-x="596" d="M100 0v1500h396v-1500h-396z" />
<glyph unicode="J" horiz-adv-x="581" d="M-250 -15q171 0 253 79t82 242v1194h396v-1194q0 -240 -71 -386.5t-227.5 -213t-412.5 -66.5z" />
<glyph unicode="K" horiz-adv-x="1543" d="M100 0v1500h396v-627q53 78 101 144t81 107l299 376h466l-553 -695l653 -805h-511l-395 487l-141 -178v-309h-396z" />
<glyph unicode="L" horiz-adv-x="1140" d="M100 0v1500h396v-1155h624v-345h-1020z" />
<glyph unicode="M" horiz-adv-x="1865" d="M100 0v1500h500l332 -802l333 802h500v-1500h-396v932l-291 -680h-292l-290 678v-930h-396z" />
<glyph unicode="N" horiz-adv-x="1602" d="M100 0v1500h466l540 -893v893h396v-1500h-466l-540 890v-890h-396z" />
<glyph unicode="O" horiz-adv-x="1710" d="M60 750q0 168 59 310t166.5 247.5t253 164t318.5 58.5q172 0 317 -58.5t251.5 -164t165.5 -247.5t59 -310t-59 -310t-165.5 -247.5t-251.5 -164t-318 -58.5q-172 0 -317.5 58.5t-253 164t-166.5 247.5t-59 310zM465 750q0 -92 29.5 -171t82.5 -138.5t124.5 -92.5 t154.5 -33t154 33t123.5 92.5t82 138.5t29.5 171t-29.5 171t-82 138.5t-123.5 92.5t-154 33t-154.5 -33t-124.5 -92.5t-82.5 -138.5t-29.5 -171z" />
<glyph unicode="P" horiz-adv-x="1376" d="M100 0v1500h547q193 0 334.5 -64.5t218 -183t76.5 -281.5t-76.5 -282.5t-216.5 -184.5t-331 -65h-156v-439h-396zM496 784h112q128 0 195.5 48t67.5 139q0 89 -68 136.5t-195 47.5h-112v-371z" />
<glyph unicode="Q" horiz-adv-x="1718" d="M60 750q0 168 59 310t166.5 247.5t253 164t318.5 58.5q172 0 317 -58.5t251.5 -164t165.5 -247.5t59 -310q0 -144 -44.5 -270.5t-125.5 -227t-193 -167.5q60 -11 118.5 -19.5t120.5 -13.5t132 -8l-86 -309q-141 32 -250 64.5t-207.5 73.5t-211.5 98h-47 q-172 0 -317.5 58.5t-253 163.5t-166.5 247t-59 310zM465 750q0 -92 29.5 -171t82.5 -138.5t124.5 -92.5t154.5 -33t154 33t123.5 92.5t82 138.5t29.5 171t-29.5 171t-82 138.5t-123.5 92.5t-154 33t-154.5 -33t-124.5 -92.5t-82.5 -138.5t-29.5 -171z" />
<glyph unicode="R" horiz-adv-x="1448" d="M100 0v1500h634q195 0 332 -59t209.5 -171.5t72.5 -271.5q0 -149 -64 -257t-185 -170l329 -571h-438l-286 496h-208v-496h-396zM496 801h207q119 0 179.5 44.5t60.5 132.5t-60.5 132.5t-179.5 44.5h-207v-354z" />
<glyph unicode="S" horiz-adv-x="1252" d="M30 172l186 302q73 -57 136.5 -93t124 -52.5t123.5 -16.5q62 0 106 14.5t67.5 42t23.5 65.5q0 48 -34 82t-90.5 61t-123.5 54q-72 29 -147 64.5t-138 86.5t-102 124.5t-39 179.5q0 140 70.5 239.5t193 152t277.5 52.5q113 0 239 -30t255 -94l-154 -318 q-72 44 -157.5 70.5t-156.5 26.5q-49 0 -85.5 -13t-56.5 -37.5t-20 -57.5q0 -44 34 -77.5t90 -61.5t122 -57q72 -31 147.5 -69t139 -90t102.5 -124.5t39 -173.5q0 -135 -73.5 -237.5t-205 -159.5t-305.5 -57q-162 0 -312 52t-276 150z" />
<glyph unicode="T" horiz-adv-x="1248" d="M10 1155v345h1228v-345h-416v-1155h-396v1155h-416z" />
<glyph unicode="U" horiz-adv-x="1544" d="M100 677v823h396v-769q0 -143 29.5 -235t90.5 -136.5t156 -44.5t156 44.5t90.5 136.5t29.5 235v769h396v-823q0 -220 -80.5 -378.5t-231 -243.5t-360.5 -85q-209 0 -360 85t-231.5 243.5t-80.5 378.5z" />
<glyph unicode="V" horiz-adv-x="1606" d="M10 1500h415l378 -1040l378 1040h415l-585 -1500h-415z" />
<glyph unicode="W" horiz-adv-x="2249" d="M10 1500h416l257 -862l257 862h371l256 -860l256 860h416l-486 -1500h-371l-256 855l-257 -855h-371z" />
<glyph unicode="X" horiz-adv-x="1637" d="M10 0l568 764l-523 736h499l277 -405l265 405h488l-526 -722l569 -778h-499l-324 471l-325 -471h-469z" />
<glyph unicode="Y" horiz-adv-x="1532" d="M10 1500h481l273 -506l277 506h481l-558 -860v-640h-396v641z" />
<glyph unicode="Z" horiz-adv-x="1282" d="M60 0v290l629 865h-589v345h1112v-300l-622 -855h632v-345h-1162z" />
<glyph unicode="[" horiz-adv-x="690" d="M100 -289v1829h570v-290h-250v-1245h250v-294h-570z" />
<glyph unicode="\" horiz-adv-x="1005" d="M10 1520h346l639 -1540h-346z" />
<glyph unicode="]" horiz-adv-x="690" d="M20 1h250v1249h-250v290h570v-1829h-570v290z" />
<glyph unicode="^" horiz-adv-x="1089" d="M20 700l426 800h197l426 -800h-278l-246 515l-247 -515h-278z" />
<glyph unicode="_" horiz-adv-x="1303" d="M100 0v290h1103v-290h-1103z" />
<glyph unicode="`" horiz-adv-x="531" d="M30 1500h330l131 -340h-260z" />
<glyph unicode="a" horiz-adv-x="1129" d="M50 287q0 94 50 165t138.5 111.5t202.5 40.5q62 0 122 -12.5t117 -36.5v16q0 46 -29.5 81t-82 55t-119.5 20q-68 0 -131.5 -20t-113.5 -57l-94 271q110 49 218 74t207 25q157 0 272.5 -60.5t178.5 -171t63 -260.5v-528h-323l-18 110q-55 -63 -133 -96.5t-170 -33.5 q-103 0 -183 39.5t-126 109t-46 158.5zM374 340q0 -26 15 -47t41.5 -32.5t59.5 -11.5q45 0 88.5 20t71.5 51t28 63v1q-36 21 -80 32.5t-88 11.5q-63 0 -99.5 -23.5t-36.5 -64.5z" />
<glyph unicode="b" horiz-adv-x="1265" d="M100 0v1500h369v-600q59 57 134 88.5t163 31.5q131 0 232 -67.5t159 -185t58 -267.5t-58 -267.5t-159 -185t-232 -67.5q-98 0 -181.5 39.5t-143.5 109.5l-18 -129h-323zM469 483q4 -51 28.5 -90t65 -61t90.5 -22q54 0 95.5 24.5t65 68t23.5 99.5q0 54 -23.5 96.5t-65 67 t-95.5 24.5q-50 0 -90.5 -22t-65 -60t-28.5 -88v-37z" />
<glyph unicode="c" horiz-adv-x="1063" d="M50 500q0 150 70.5 267.5t194 185t280.5 67.5q134 0 243.5 -50t182.5 -136l-215 -227q-31 38 -80.5 60.5t-103.5 22.5q-56 0 -100 -24t-69 -66.5t-25 -97.5q0 -56 25 -99.5t69 -68t100 -24.5q54 0 104 22.5t80 60.5l217 -224q-73 -88 -183 -138.5t-245 -50.5 q-157 0 -280.5 67.5t-194 185t-70.5 267.5z" />
<glyph unicode="d" horiz-adv-x="1266" d="M50 500q0 150 58 267.5t159.5 185t231.5 67.5q88 0 164 -31.5t134 -88.5v600h369v-1500h-323l-19 130q-60 -70 -143.5 -110t-181.5 -40q-130 0 -231.5 67.5t-159.5 185t-58 267.5zM428 500q0 -55 24 -98t66 -67.5t95 -24.5q51 0 92.5 22t66.5 61t25 90v37q0 50 -25 88 t-66.5 60t-92.5 22q-53 0 -95 -24.5t-66 -67.5t-24 -98z" />
<glyph unicode="e" horiz-adv-x="1166" d="M50 517q0 144 70 257.5t190.5 179.5t272.5 66q159 0 279 -73t187 -203t67 -302v-32h-670q18 -39 50 -70.5t80 -50.5t112 -19q141 0 267 90l96 -255q-187 -125 -406 -125q-169 0 -303.5 70.5t-213 192t-78.5 274.5zM429 560h349q-5 47 -28.5 83t-62 56.5t-85.5 20.5 q-48 0 -84 -22t-58.5 -58t-30.5 -80z" />
<glyph unicode="f" horiz-adv-x="985" d="M10 671v329h175v116q0 119 59 212.5t160.5 147.5t231.5 54q82 0 168.5 -24t170.5 -76l-139 -286q-31 29 -67 42.5t-71 13.5q-58 0 -101 -39.5t-43 -116.5v-44h292v-329h-292v-671h-369v671h-175z" />
<glyph unicode="g" horiz-adv-x="1255" d="M50 500q0 151 58 268t159.5 184.5t231.5 67.5q99 0 182.5 -40t143.5 -111l17 131h323v-971q0 -164 -77 -288t-215 -192.5t-322 -68.5q-251 0 -467 151l145 303q130 -124 293 -124q80 0 141.5 30t97 83.5t35.5 121.5v55q-58 -57 -133.5 -88.5t-163.5 -31.5 q-130 0 -231.5 67.5t-159.5 185t-58 267.5zM428 500q0 -55 24 -98t66 -67.5t95 -24.5q51 0 92.5 21.5t66 60.5t24.5 89v41q0 49 -25 87t-66.5 59.5t-91.5 21.5q-53 0 -95 -24.5t-66 -67.5t-24 -98z" />
<glyph unicode="h" horiz-adv-x="1219" d="M100 0v1500h369v-596q105 116 283 116q182 0 284.5 -115.5t102.5 -321.5v-583h-369v482q0 100 -38.5 154t-109.5 54q-73 0 -113 -54.5t-40 -153.5v-482h-369z" />
<glyph unicode="i" horiz-adv-x="569" d="M100 0v1000h369v-1000h-369zM125 1349q0 67 46 114t113 47q68 0 114.5 -47t46.5 -114t-46.5 -114t-114.5 -47q-67 0 -113 47t-46 114z" />
<glyph unicode="j" horiz-adv-x="553" d="M-169 -209q16 -3 30.5 -4t25.5 -1q100 0 153.5 59.5t53.5 169.5v985h369v-1002q0 -259 -110 -388.5t-330 -129.5q-43 0 -91 5.5t-101 15.5v290zM119 1349q0 67 46 114t113 47q68 0 114.5 -47t46.5 -114t-46.5 -114t-114.5 -47q-67 0 -113 47t-46 114z" />
<glyph unicode="k" horiz-adv-x="1282" d="M100 0v1500h369v-833l111 134l190 199h462l-433 -453l473 -547h-475l-251 328l-77 -51v-277h-369z" />
<glyph unicode="l" horiz-adv-x="596" d="M100 0v1500h396v-1500h-396z" />
<glyph unicode="m" horiz-adv-x="1837" d="M100 0v1000h292l12 -156q51 86 133.5 131t191.5 45q110 0 192 -44t130 -127q52 84 133 127.5t189 43.5q181 0 282.5 -115.5t101.5 -321.5v-583h-369v482q0 100 -35 154t-100 54q-67 0 -103.5 -54.5t-36.5 -153.5v-482h-369v482q0 100 -35 154t-100 54q-67 0 -103.5 -54.5 t-36.5 -153.5v-482h-369z" />
<glyph unicode="n" horiz-adv-x="1219" d="M100 0v1000h292l12 -159q53 88 138.5 133.5t200.5 45.5q186 0 291 -115.5t105 -321.5v-583h-369v482q0 100 -38.5 154t-109.5 54q-48 0 -82.5 -24.5t-52.5 -71t-18 -112.5v-482h-369z" />
<glyph unicode="o" horiz-adv-x="1188" d="M50 500q0 150 70.5 267.5t194 185t280.5 67.5q158 0 280.5 -67.5t192.5 -185t70 -267.5t-70 -267.5t-192.5 -185t-280.5 -67.5q-157 0 -280.5 67.5t-194 185t-70.5 267.5zM428 502q0 -56 21.5 -99.5t59 -68t85.5 -24.5t85.5 24.5t59 68t21.5 99.5q0 54 -21.5 96.5t-59 67 t-85.5 24.5t-85.5 -24.5t-59 -67t-21.5 -96.5z" />
<glyph unicode="p" horiz-adv-x="1266" d="M100 -500v1500h323l19 -130q60 71 143.5 110.5t181.5 39.5q131 0 232 -67.5t159 -185t58 -267.5t-58 -267.5t-159 -185t-232 -67.5q-88 0 -163 31.5t-134 88.5v-600h-370zM470 480q4 -49 28.5 -87.5t65 -60.5t90.5 -22q54 0 95.5 24.5t65 67.5t23.5 98t-23.5 98t-65 67.5 t-95.5 24.5q-50 0 -90.5 -22t-65 -61t-28.5 -90v-37z" />
<glyph unicode="q" horiz-adv-x="1266" d="M50 500q0 150 58 267.5t159.5 185t231.5 67.5q98 0 181.5 -39.5t143.5 -110.5l19 130h323v-1500h-369v600q-58 -57 -134 -88.5t-164 -31.5q-130 0 -231.5 67.5t-159.5 185t-58 267.5zM428 500q0 -55 24 -98t66 -67.5t95 -24.5q51 0 91 22t64.5 60.5t28.5 87.5v37 q-4 51 -28.5 90t-64.5 61t-91 22q-53 0 -95 -24.5t-66 -67.5t-24 -98z" />
<glyph unicode="r" horiz-adv-x="894" d="M100 0v1000h320l12 -157q50 84 130 130.5t183 46.5q35 0 71 -5.5t73 -16.5l-46 -332q-73 24 -136 24q-73 0 -126.5 -30.5t-82.5 -85.5t-29 -131v-443h-369z" />
<glyph unicode="s" horiz-adv-x="910" d="M30 85l76 304q27 -32 80.5 -62t116.5 -48.5t116 -18.5q40 0 61 12t21 34q0 23 -20 39.5t-53.5 30.5t-76.5 29q-64 23 -134.5 56.5t-119.5 92t-49 156.5q0 95 50.5 164.5t143 107.5t217.5 38q209 0 421 -105l-103 -281q-32 28 -84 53t-106.5 41t-94.5 16 q-33 0 -49.5 -11.5t-16.5 -31.5q0 -22 19.5 -38.5t53 -30t73.5 -28.5q67 -23 138 -56.5t120.5 -92t49.5 -157.5q0 -97 -53.5 -168.5t-151 -110.5t-230.5 -39q-222 0 -415 105z" />
<glyph unicode="t" horiz-adv-x="908" d="M30 671v329h195v250h349v-250h263v-329h-263v-205q0 -77 43 -116.5t101 -39.5q59 0 114 38l46 -320q-126 -48 -243 -48q-127 0 -224 53t-151.5 147.5t-54.5 218.5v272h-175z" />
<glyph unicode="u" horiz-adv-x="1219" d="M80 417v583h369v-482q0 -100 38.5 -154t109.5 -54q73 0 113 54.5t40 153.5v482h369v-1000h-292l-12 159q-52 -88 -138 -133.5t-201 -45.5q-186 0 -291 116t-105 321z" />
<glyph unicode="v" horiz-adv-x="1197" d="M20 1000h394l185 -632l185 632h393l-400 -1000h-357z" />
<glyph unicode="w" horiz-adv-x="1742" d="M10 1000h390l139 -629l174 629h316l174 -633l139 633h390l-325 -1000h-420l-116 519l-116 -519h-420z" />
<glyph unicode="x" horiz-adv-x="1393" d="M10 0l428 508l-413 492h518l154 -256l153 256h518l-413 -490l428 -510h-518l-169 281l-168 -281h-518z" />
<glyph unicode="y" horiz-adv-x="1369" d="M30 1000h420l277 -584l242 584h390l-622 -1500h-390l206 497z" />
<glyph unicode="z" horiz-adv-x="1148" d="M50 0v180l419 490h-394v330h981v-150l-444 -520h486v-330h-1048z" />
<glyph unicode="{" horiz-adv-x="684" d="M20 555v141q69 5 116.5 67.5t47.5 148.5v279q0 173 121.5 261t358.5 88v-291q-85 0 -122.5 -31.5t-37.5 -105.5v-210q0 -93 -46 -165.5t-126 -110.5q80 -37 126 -110.5t46 -166.5v-210q0 -73 37.5 -105t122.5 -32v-291q-237 0 -358.5 88.5t-121.5 260.5v279 q0 86 -47.5 148.5t-116.5 67.5z" />
<glyph unicode="|" horiz-adv-x="520" d="M100 -250v1790h320v-1790h-320z" />
<glyph unicode="}" horiz-adv-x="684" d="M20 2q86 0 123 32t37 105v210q0 93 46 166.5t126 110.5q-80 38 -126 110.5t-46 165.5v210q0 74 -37 106t-123 32v290q237 0 358.5 -88t121.5 -261v-279q0 -86 47.5 -148.5t116.5 -67.5v-141q-69 -5 -116.5 -67.5t-47.5 -148.5v-279q0 -172 -121.5 -260.5t-358.5 -88.5 v291z" />
<glyph unicode="~" horiz-adv-x="1242" d="M100 385v262q147 144 288 144q64 0 123.5 -22t117.5 -48t116.5 -47.5t119.5 -21.5q141 0 277 148v-262q-70 -75 -138.5 -111.5t-140.5 -36.5q-61 0 -119.5 21.5t-116.5 47.5t-117.5 48t-123.5 22q-142 0 -286 -144z" />
<glyph unicode="&#xa2;" horiz-adv-x="1063" d="M50 640q0 132 55 239.5t153.5 178.5t226.5 93l-10 189h240l-10 -189q98 -17 178.5 -63t137.5 -114l-215 -227q-31 38 -80.5 60.5t-103.5 22.5q-56 0 -100 -24t-69 -66.5t-25 -98.5q0 -55 25 -98.5t69 -68t100 -24.5q54 0 104 22.5t80 60.5l217 -224q-57 -69 -138.5 -116 t-179.5 -64l10 -189h-240l10 189q-128 23 -226.5 93.5t-153.5 178t-55 239.5z" />
<glyph unicode="&#xa3;" horiz-adv-x="1253" d="M70 0v200q115 44 187 135.5t72 223.5q0 23 -2 46t-7 45h-250v200h191q-18 56 -32 113t-14 121q0 127 60.5 225.5t166.5 154.5t243 56q157 0 288.5 -76t209.5 -213l-241 -177q-34 65 -85.5 101t-110.5 36q-51 0 -90.5 -26t-62 -71t-22.5 -104q0 -36 2 -71t6 -69h387v-200 h-369q4 -18 5 -35.5t1 -38.5q0 -70 -17 -131.5t-53 -114.5h587v-330h-1050z" />
<glyph unicode="&#xa5;" horiz-adv-x="1364" d="M20 1500h430l231 -555l233 555h430l-466 -854h257v-150h-264v-101h264v-150h-264v-245h-376v245h-267v150h267v101h-267v150h264z" />
<glyph unicode="&#xa8;" horiz-adv-x="929" d="M90 1329q0 63 38.5 101.5t101.5 38.5t101.5 -38.5t38.5 -101.5t-38.5 -101.5t-101.5 -38.5t-101.5 38.5t-38.5 101.5zM559 1329q0 63 38.5 101.5t101.5 38.5t101.5 -38.5t38.5 -101.5t-38.5 -101.5t-101.5 -38.5t-101.5 38.5t-38.5 101.5z" />
<glyph unicode="&#xa9;" horiz-adv-x="1239" d="M20 495q0 173 77.5 308t213.5 212.5t309 77.5t308.5 -77.5t213 -212.5t77.5 -308t-77.5 -308.5t-213 -213t-308.5 -77.5t-309 77.5t-213.5 213t-77.5 308.5zM194 494q0 -123 55.5 -219.5t152 -152t218.5 -55.5q123 0 219 55.5t151 152.5t55 219q0 123 -55.5 220 t-151.5 152.5t-218 55.5t-218.5 -55.5t-152 -152t-55.5 -220.5zM293 495q0 95 44 169.5t122 117t178 42.5q151 0 250 -94l-113 -120q-22 27 -55 41.5t-71 14.5q-72 0 -119 -48.5t-47 -122.5t47 -122.5t119 -48.5q38 0 71 14.5t55 41.5l113 -120q-99 -94 -250 -94 q-100 0 -178 42.5t-122 117t-44 169.5z" />
<glyph unicode="&#xab;" horiz-adv-x="1246" d="M20 497l323 385h339l-342 -386l342 -385h-339zM484 497l323 385h339l-342 -386l342 -385h-339z" />
<glyph unicode="&#xad;" d="M100 360v280h800v-280h-800z" />
<glyph unicode="&#xae;" horiz-adv-x="1239" d="M20 1023q0 173 77.5 308t213.5 212.5t309 77.5t308.5 -77.5t213 -212.5t77.5 -308t-77.5 -308.5t-213 -213t-308.5 -77.5t-309 77.5t-213.5 213t-77.5 308.5zM194 1022q0 -123 55.5 -219.5t152 -152t218.5 -55.5q123 0 219 55.5t151 152t55 219.5q0 124 -55.5 220.5 t-151.5 152.5t-218 56t-218.5 -55.5t-152 -152.5t-55.5 -221zM383 703v642h268q104 0 165.5 -55.5t61.5 -147.5q0 -65 -31.5 -112.5t-87.5 -70.5l131 -259h-176l-114 239h-57v-236h-160zM543 1069h69q49 0 75 19t26 56q0 35 -25.5 53t-75.5 18h-69v-146z" />
<glyph unicode="&#xb4;" horiz-adv-x="531" d="M40 1160l132 340h329l-200 -340h-261z" />
<glyph unicode="&#xb8;" horiz-adv-x="513" d="M70 -395l48 132q35 -19 73 -19t61.5 21t23.5 55q0 32 -23 52t-75 20h-11.5t-12.5 -1l55 142h122l-51 -109q75 -8 119 -48.5t44 -104.5q0 -76 -61.5 -126.5t-155.5 -50.5q-77 0 -156 37z" />
<glyph unicode="&#xbb;" horiz-adv-x="1246" d="M100 111l342 385l-342 386h339l323 -385l-323 -386h-339zM564 111l343 385l-343 386h339l323 -385l-323 -386h-339z" />
<glyph unicode="&#x2c6;" horiz-adv-x="943" d="M100 1160l225 340h293l225 -340h-270l-102 192l-101 -192h-270z" />
<glyph unicode="&#x2da;" horiz-adv-x="660" d="M100 1300q0 99 63.5 159.5t166.5 60.5q104 0 167 -60.5t63 -159.5t-63 -159.5t-167 -60.5q-103 0 -166.5 60.5t-63.5 159.5zM250 1300q0 -36 22 -58t58 -22t58 22t22 58t-22 58t-58 22t-58 -22t-22 -58z" />
<glyph unicode="&#x2dc;" horiz-adv-x="1005" d="M100 1196q0 294 238 294q74 0 121.5 -23.5t87.5 -49.5q32 -20 61.5 -36t66.5 -16q96 0 102 116h128q0 -145 -58 -219t-174 -74q-70 0 -115 23t-82 48q-31 21 -61.5 37.5t-71.5 16.5q-109 0 -115 -117h-128z" />
<glyph unicode="&#x2000;" horiz-adv-x="810" />
<glyph unicode="&#x2001;" horiz-adv-x="1621" />
<glyph unicode="&#x2002;" horiz-adv-x="810" />
<glyph unicode="&#x2003;" horiz-adv-x="1621" />
<glyph unicode="&#x2004;" horiz-adv-x="540" />
<glyph unicode="&#x2005;" horiz-adv-x="405" />
<glyph unicode="&#x2006;" horiz-adv-x="270" />
<glyph unicode="&#x2007;" horiz-adv-x="270" />
<glyph unicode="&#x2008;" horiz-adv-x="202" />
<glyph unicode="&#x2009;" horiz-adv-x="324" />
<glyph unicode="&#x200a;" horiz-adv-x="90" />
<glyph unicode="&#x2010;" d="M100 360v280h800v-280h-800z" />
<glyph unicode="&#x2011;" d="M100 360v280h800v-280h-800z" />
<glyph unicode="&#x2012;" d="M100 360v280h800v-280h-800z" />
<glyph unicode="&#x2013;" horiz-adv-x="1220" d="M100 370v280h1020v-280h-1020z" />
<glyph unicode="&#x2014;" horiz-adv-x="2240" d="M100 370v280h2040v-280h-2040z" />
<glyph unicode="&#x2018;" horiz-adv-x="551" d="M100 1070l144 450h207l-101 -450h-250z" />
<glyph unicode="&#x2019;" horiz-adv-x="551" d="M100 1070l101 450h250l-145 -450h-206z" />
<glyph unicode="&#x201a;" horiz-adv-x="490" d="M60 -240l70 440h290l-120 -440h-240z" />
<glyph unicode="&#x201c;" horiz-adv-x="966" d="M100 1070l145 450h206l-101 -450h-250zM515 1070l144 450h207l-101 -450h-250z" />
<glyph unicode="&#x201d;" horiz-adv-x="966" d="M100 1070l101 450h250l-144 -450h-207zM515 1070l101 450h250l-144 -450h-207z" />
<glyph unicode="&#x201e;" horiz-adv-x="910" d="M60 -240l70 440h290l-120 -440h-240zM479 -240l70 440h290l-120 -440h-240z" />
<glyph unicode="&#x2026;" horiz-adv-x="1360" d="M90 140q0 72 44 116t116 44t116 -44t44 -116t-44 -116t-116 -44t-116 44t-44 116zM520 140q0 72 44 116t116 44t116 -44t44 -116t-44 -116t-116 -44t-116 44t-44 116zM950 140q0 72 44 116t116 44t116 -44t44 -116t-44 -116t-116 -44t-116 44t-44 116z" />
<glyph unicode="&#x202f;" horiz-adv-x="324" />
<glyph unicode="&#x2039;" horiz-adv-x="816" d="M20 524l351 408h345l-362 -408l362 -408h-345z" />
<glyph unicode="&#x203a;" horiz-adv-x="816" d="M100 116l362 408l-362 408h345l351 -408l-351 -408h-345z" />
<glyph unicode="&#x205f;" horiz-adv-x="405" />
<glyph unicode="&#x20ac;" horiz-adv-x="1064" d="M20 535l19 160h112q-2 17 -3.5 31.5t-1.5 30.5q0 11 1 24.5t2 23.5h-129l19 160h133q45 174 160.5 300.5t289 195.5t392.5 69v-345q-99 0 -179.5 -26t-140 -75t-94.5 -119h289l-19 -160h-315q-1 -16 -2 -27.5t-1 -27.5t1 -27.5t2 -27.5h304l-19 -160h-240 q35 -69 94.5 -118.5t140 -75.5t179.5 -26v-345q-219 0 -392.5 69t-289 196t-160.5 300h-152z" />
<glyph unicode="&#x2122;" horiz-adv-x="1595" d="M20 1334v166h589v-166h-199v-554h-190v554h-200zM696 780v720h240l159 -385l160 385h240v-720h-190v447l-140 -326h-140l-139 325v-446h-190z" />
<glyph unicode="&#x25fc;" d="M0 0v1000h1000v-1000h-1000z" />
</font>
</defs>
</svg>
